<svg xmlns="http://www.w3.org/2000/svg" width="48" height="47" viewBox="0 0 48 47"><g><g><path fill="#454545" d="M47.392 23.499c0 12.98-10.605 23.505-23.685 23.505C10.627 47.004.022 36.48.022 23.499c0-12.98 10.605-23.504 23.685-23.504 13.08 0 23.685 10.52 23.685 23.504zm-17.044-4.863h-4.406l.006-2.432c0-1.266.089-1.945 1.921-1.945h2.452V9.396H26.4c-4.705 0-5.788 2.412-5.788 6.38l.006 2.86-3.553.003v4.86h3.553V37.6h5.326l.003-14.102 3.881-.003z"/><path fill="#fff" d="M47.392 23.499c0 12.98-10.605 23.505-23.685 23.505C10.627 47.004.022 36.48.022 23.499c0-12.98 10.605-23.504 23.685-23.504 13.08 0 23.685 10.52 23.685 23.504zm-17.044-4.863h-4.406l.006-2.432c0-1.266.089-1.945 1.921-1.945h2.452V9.396H26.4c-4.705 0-5.788 2.412-5.788 6.38l.006 2.86-3.553.003v4.86h3.553V37.6h5.326l.003-14.102 3.881-.003z"/></g></g></svg>