<svg xmlns="http://www.w3.org/2000/svg" width="48" height="47" viewBox="0 0 48 47"><g><g><path fill="#454545" d="M35.116 18.185c.064 1.388.077 1.804.077 5.32 0 3.514-.013 3.93-.077 5.318-.07 1.498-.372 2.889-1.45 3.958-1.077 1.07-2.478 1.37-3.988 1.438-1.399.064-1.818.077-5.36.077-3.542 0-3.962-.013-5.36-.077-1.51-.068-2.911-.368-3.989-1.438-1.078-1.07-1.38-2.46-1.45-3.958-.063-1.388-.076-1.804-.076-5.319 0-3.515.013-3.931.077-5.32.069-1.497.371-2.888 1.449-3.957 1.078-1.07 2.479-1.37 3.989-1.438 1.398-.064 1.818-.077 5.36-.077 3.542 0 3.961.013 5.36.077 1.51.068 2.91.368 3.988 1.438 1.078 1.07 1.38 2.46 1.45 3.958zm-3.987 5.32c0-3.734-3.049-6.76-6.811-6.76-3.763 0-6.812 3.026-6.812 6.76 0 3.732 3.05 6.759 6.812 6.759 3.761 0 6.811-3.027 6.811-6.76zm1.862-7.028c0-.873-.713-1.58-1.592-1.58-.88 0-1.592.707-1.592 1.58 0 .872.713 1.58 1.592 1.58.879 0 1.592-.708 1.592-1.58zm-4.252 7.027c0 2.424-1.979 4.388-4.421 4.388-2.443 0-4.422-1.965-4.422-4.388 0-2.424 1.98-4.388 4.422-4.388 2.442 0 4.421 1.965 4.421 4.388zm19.258 0c0 12.978-10.601 23.5-23.68 23.5-13.077 0-23.679-10.522-23.679-23.5S11.24.006 24.318.006s23.68 10.52 23.68 23.498zm-10.414 0c0-3.575-.015-4.023-.08-5.427-.098-2.14-.626-4.019-2.146-5.528-1.52-1.508-3.413-2.032-5.57-2.13-1.415-.064-1.867-.08-5.47-.08-3.602 0-4.053.016-5.469.08-2.155.098-4.049.622-5.57 2.13-1.52 1.508-2.047 3.387-2.146 5.528-.065 1.404-.08 1.852-.08 5.427 0 3.575.015 4.023.08 5.428.099 2.139.627 4.018 2.146 5.527 1.52 1.508 3.414 2.032 5.57 2.13 1.416.064 1.867.08 5.47.08 3.602 0 4.054-.016 5.47-.08 2.155-.098 4.048-.622 5.569-2.13 1.52-1.508 2.048-3.388 2.146-5.527.065-1.405.08-1.853.08-5.428z"/><path fill="#fff" d="M35.116 18.185c.064 1.388.077 1.804.077 5.32 0 3.514-.013 3.93-.077 5.318-.07 1.498-.372 2.889-1.45 3.958-1.077 1.07-2.478 1.37-3.988 1.438-1.399.064-1.818.077-5.36.077-3.542 0-3.962-.013-5.36-.077-1.51-.068-2.911-.368-3.989-1.438-1.078-1.07-1.38-2.46-1.45-3.958-.063-1.388-.076-1.804-.076-5.319 0-3.515.013-3.931.077-5.32.069-1.497.371-2.888 1.449-3.957 1.078-1.07 2.479-1.37 3.989-1.438 1.398-.064 1.818-.077 5.36-.077 3.542 0 3.961.013 5.36.077 1.51.068 2.91.368 3.988 1.438 1.078 1.07 1.38 2.46 1.45 3.958zm-3.987 5.32c0-3.734-3.049-6.76-6.811-6.76-3.763 0-6.812 3.026-6.812 6.76 0 3.732 3.05 6.759 6.812 6.759 3.761 0 6.811-3.027 6.811-6.76zm1.862-7.028c0-.873-.713-1.58-1.592-1.58-.88 0-1.592.707-1.592 1.58 0 .872.713 1.58 1.592 1.58.879 0 1.592-.708 1.592-1.58zm-4.252 7.027c0 2.424-1.979 4.388-4.421 4.388-2.443 0-4.422-1.965-4.422-4.388 0-2.424 1.98-4.388 4.422-4.388 2.442 0 4.421 1.965 4.421 4.388zm19.258 0c0 12.978-10.601 23.5-23.68 23.5-13.077 0-23.679-10.522-23.679-23.5S11.24.006 24.318.006s23.68 10.52 23.68 23.498zm-10.414 0c0-3.575-.015-4.023-.08-5.427-.098-2.14-.626-4.019-2.146-5.528-1.52-1.508-3.413-2.032-5.57-2.13-1.415-.064-1.867-.08-5.47-.08-3.602 0-4.053.016-5.469.08-2.155.098-4.049.622-5.57 2.13-1.52 1.508-2.047 3.387-2.146 5.528-.065 1.404-.08 1.852-.08 5.427 0 3.575.015 4.023.08 5.428.099 2.139.627 4.018 2.146 5.527 1.52 1.508 3.414 2.032 5.57 2.13 1.416.064 1.867.08 5.47.08 3.602 0 4.054-.016 5.47-.08 2.155-.098 4.048-.622 5.569-2.13 1.52-1.508 2.048-3.388 2.146-5.527.065-1.405.08-1.853.08-5.428z"/></g></g></svg>