<svg xmlns="http://www.w3.org/2000/svg" width="48" height="47" viewBox="0 0 48 47"><g><g><path fill="#454545" d="M47.509 23.456c0 12.901-10.54 23.36-23.54 23.36S.43 36.358.43 23.457C.429 10.554 10.969.094 23.969.094S47.51 10.55 47.51 23.456zm-8.934-8.215a11.68 11.68 0 0 1-3.327.905 5.773 5.773 0 0 0 2.548-3.183 11.8 11.8 0 0 1-3.682 1.396 5.814 5.814 0 0 0-4.23-1.816c-3.202 0-5.797 2.575-5.797 5.75 0 .449.05.89.15 1.311a16.49 16.49 0 0 1-11.947-6.01 5.703 5.703 0 0 0-.783 2.891 5.74 5.74 0 0 0 2.578 4.787 5.823 5.823 0 0 1-2.625-.722v.073c0 2.786 1.998 5.108 4.65 5.639a5.847 5.847 0 0 1-1.528.198c-.376 0-.735-.032-1.091-.099a5.8 5.8 0 0 0 5.414 3.995 11.685 11.685 0 0 1-7.197 2.462c-.468 0-.93-.03-1.384-.082a16.492 16.492 0 0 0 8.884 2.585c10.66 0 16.49-8.761 16.49-16.365l-.018-.745a11.675 11.675 0 0 0 2.895-2.97z"/><path fill="#fff" d="M47.509 23.456c0 12.901-10.54 23.36-23.54 23.36S.43 36.358.43 23.457C.429 10.554 10.969.094 23.969.094S47.51 10.55 47.51 23.456zm-8.934-8.215a11.68 11.68 0 0 1-3.327.905 5.773 5.773 0 0 0 2.548-3.183 11.8 11.8 0 0 1-3.682 1.396 5.814 5.814 0 0 0-4.23-1.816c-3.202 0-5.797 2.575-5.797 5.75 0 .449.05.89.15 1.311a16.49 16.49 0 0 1-11.947-6.01 5.703 5.703 0 0 0-.783 2.891 5.74 5.74 0 0 0 2.578 4.787 5.823 5.823 0 0 1-2.625-.722v.073c0 2.786 1.998 5.108 4.65 5.639a5.847 5.847 0 0 1-1.528.198c-.376 0-.735-.032-1.091-.099a5.8 5.8 0 0 0 5.414 3.995 11.685 11.685 0 0 1-7.197 2.462c-.468 0-.93-.03-1.384-.082a16.492 16.492 0 0 0 8.884 2.585c10.66 0 16.49-8.761 16.49-16.365l-.018-.745a11.675 11.675 0 0 0 2.895-2.97z"/></g></g></svg>